<svg width="322" height="119" viewBox="0 0 322 119" fill="none" xmlns="http://www.w3.org/2000/svg">
<g id="oasis">
<g id="OASIS">
<path d="M45.2805 118.664C38.9658 118.664 33.0778 117.555 27.6165 115.336C22.1551 113.117 17.3765 110.003 13.2805 105.992C9.2698 101.896 6.11247 97.1173 3.80847 91.656C1.5898 86.1947 0.480469 80.3067 0.480469 73.992C0.480469 67.6773 1.5898 61.7893 3.80847 56.328C6.11247 50.8667 9.2698 46.1307 13.2805 42.12C17.3765 38.1093 22.1551 34.9947 27.6165 32.776C33.0778 30.472 38.9658 29.32 45.2805 29.32C51.6805 29.32 57.5685 30.472 62.9445 32.776C68.4058 34.9947 73.1845 38.1093 77.2805 42.12C81.3765 46.1307 84.5338 50.8667 86.7525 56.328C89.0565 61.7893 90.2085 67.6773 90.2085 73.992C90.2085 80.3067 89.0565 86.1947 86.7525 91.656C84.5338 97.1173 81.3765 101.896 77.2805 105.992C73.1845 110.003 68.4058 113.117 62.9445 115.336C57.5685 117.555 51.6805 118.664 45.2805 118.664ZM45.2805 101C48.8645 101 52.1925 100.317 55.2645 98.952C58.4218 97.5867 61.1525 95.6667 63.4565 93.192C65.8458 90.7173 67.6805 87.8587 68.9605 84.616C70.2405 81.288 70.8805 77.7467 70.8805 73.992C70.8805 70.152 70.2405 66.6107 68.9605 63.368C67.6805 60.1253 65.8458 57.2667 63.4565 54.792C61.1525 52.3173 58.4218 50.3973 55.2645 49.032C52.1925 47.6667 48.8645 46.984 45.2805 46.984C41.6965 46.984 38.3258 47.6667 35.1685 49.032C32.0965 50.3973 29.3658 52.3173 26.9765 54.792C24.6725 57.2667 22.8805 60.1253 21.6005 63.368C20.3205 66.6107 19.6805 70.152 19.6805 73.992C19.6805 77.7467 20.3205 81.288 21.6005 84.616C22.8805 87.8587 24.6725 90.7173 26.9765 93.192C29.3658 95.6667 32.0965 97.5867 35.1685 98.952C38.3258 100.317 41.6965 101 45.2805 101Z" fill="black"/>
<path d="M149.478 99.336L99.6865 99.464V82.696H149.478V99.336ZM82.1505 117L104.934 43.016C106.385 38.3227 108.86 34.8667 112.358 32.648C115.857 30.344 119.612 29.192 123.622 29.192C127.804 29.192 131.601 30.344 135.014 32.648C138.513 34.8667 140.988 38.3227 142.438 43.016L165.222 117H146.15L126.566 48.52C126.054 46.8133 125.116 45.96 123.75 45.96C122.385 45.96 121.446 46.8133 120.934 48.52L101.222 117H82.1505Z" fill="black"/>
<path d="M194.818 118.664C187.138 118.664 180.312 117.085 174.338 113.928C168.45 110.685 164.141 105.992 161.41 99.848L177.026 92.04C178.392 95.112 180.568 97.4587 183.554 99.08C186.626 100.701 190.381 101.512 194.818 101.512C197.549 101.512 199.938 101.171 201.986 100.488C204.12 99.72 205.826 98.6533 207.106 97.288C208.386 95.8373 209.026 94.088 209.026 92.04C209.026 89.6507 208.344 87.8587 206.978 86.664C205.613 85.384 203.736 84.4453 201.346 83.848C198.957 83.2507 196.269 82.696 193.282 82.184C190.04 81.5867 186.626 80.8187 183.042 79.88C179.544 78.856 176.216 77.4053 173.058 75.528C169.986 73.6507 167.512 71.1333 165.634 67.976C163.757 64.7333 162.818 60.7227 162.818 55.944C162.818 50.824 164.184 46.3013 166.914 42.376C169.645 38.3653 173.4 35.208 178.178 32.904C182.957 30.5147 188.29 29.32 194.178 29.32C201.346 29.32 207.789 30.9413 213.506 34.184C219.224 37.3413 223.448 41.992 226.178 48.136L210.562 55.944C209.197 53.128 207.064 50.8667 204.162 49.16C201.346 47.4533 197.762 46.6 193.41 46.6C191.106 46.6 189.058 46.9413 187.266 47.624C185.474 48.3067 184.066 49.288 183.042 50.568C182.018 51.848 181.506 53.384 181.506 55.176C181.506 57.48 182.232 59.3147 183.682 60.68C185.133 61.96 187.096 62.9413 189.57 63.624C192.13 64.3067 194.946 64.9467 198.018 65.544C201.261 66.1413 204.589 66.952 208.002 67.976C211.501 68.9147 214.701 70.3227 217.602 72.2C220.589 74.0773 223.021 76.5947 224.898 79.752C226.776 82.9093 227.714 86.9627 227.714 91.912C227.714 97.032 226.221 101.64 223.234 105.736C220.333 109.747 216.408 112.904 211.458 115.208C206.509 117.512 200.962 118.664 194.818 118.664Z" fill="black"/>
<path d="M232.245 30.856H250.933V117H232.245V30.856Z" fill="black"/>
<path d="M288.718 118.664C281.038 118.664 274.212 117.085 268.238 113.928C262.35 110.685 258.041 105.992 255.31 99.848L270.926 92.04C272.292 95.112 274.468 97.4587 277.454 99.08C280.526 100.701 284.281 101.512 288.718 101.512C291.449 101.512 293.838 101.171 295.886 100.488C298.02 99.72 299.726 98.6533 301.006 97.288C302.286 95.8373 302.926 94.088 302.926 92.04C302.926 89.6507 302.244 87.8587 300.878 86.664C299.513 85.384 297.636 84.4453 295.246 83.848C292.857 83.2507 290.169 82.696 287.182 82.184C283.94 81.5867 280.526 80.8187 276.942 79.88C273.444 78.856 270.116 77.4053 266.958 75.528C263.886 73.6507 261.412 71.1333 259.534 67.976C257.657 64.7333 256.718 60.7227 256.718 55.944C256.718 50.824 258.084 46.3013 260.814 42.376C263.545 38.3653 267.3 35.208 272.078 32.904C276.857 30.5147 282.19 29.32 288.078 29.32C295.246 29.32 301.689 30.9413 307.406 34.184C313.124 37.3413 317.348 41.992 320.078 48.136L304.462 55.944C303.097 53.128 300.964 50.8667 298.062 49.16C295.246 47.4533 291.662 46.6 287.31 46.6C285.006 46.6 282.958 46.9413 281.166 47.624C279.374 48.3067 277.966 49.288 276.942 50.568C275.918 51.848 275.406 53.384 275.406 55.176C275.406 57.48 276.132 59.3147 277.582 60.68C279.033 61.96 280.996 62.9413 283.47 63.624C286.03 64.3067 288.846 64.9467 291.918 65.544C295.161 66.1413 298.489 66.952 301.902 67.976C305.401 68.9147 308.601 70.3227 311.502 72.2C314.489 74.0773 316.921 76.5947 318.798 79.752C320.676 82.9093 321.614 86.9627 321.614 91.912C321.614 97.032 320.121 101.64 317.134 105.736C314.233 109.747 310.308 112.904 305.358 115.208C300.409 117.512 294.862 118.664 288.718 118.664Z" fill="black"/>
</g>
<ellipse id="Ellipse 271" cx="240.5" cy="12" rx="11.5" ry="12" fill="#AA3FFE"/>
</g>
</svg>
